# xmcd CD database file
#
# Track frame offsets:
#	150
#	19620
#	46757
#	65757
#	87167
#	112095
#	133055
#	151615
#	170167
#	194162
#
# Disc length: 2925 seconds
#
# Revision: 5
# Processed by: cddbd v1.5PL3 Copyright (c) Steve Scherf et al.
# Submitted via: CDex 1.50Beta7
#
DISCID=880b6b0a
DTITLE=Deen - 和音 Song for children
DYEAR=2002
DGENRE=JPop
TTITLE0=見上げてごらん夜の星を
TTITLE1=今日の日はさようなら
TTITLE2=夢で逢えたら
TTITLE3=切手のないおくりもの
TTITLE4=戦争を知らない子供たち
TTITLE5=風をあつめて
TTITLE6=大きな空 小さな僕
TTITLE7=かあさんの歌
TTITLE8=月の砂漠
TTITLE9=少年
EXTD=YEAR: 2002/03/06
EXTT0=
EXTT1=
EXTT2=
EXTT3=
EXTT4=
EXTT5=
EXTT6=
EXTT7=
EXTT8=
EXTT9=
PLAYORDER=
